<svg xmlns="http://www.w3.org/2000/svg" width="31.136" height="30.866" viewBox="0 0 31.136 30.866">
  <path id="github" d="M10.992,24.864C3.855,26.85,3.855,21.555,1,20.893m19.985,7.943V23.713a4.164,4.164,0,0,0-.27-1.862,4.428,4.428,0,0,0-1.072-1.594c4.482-.463,9.193-2.039,9.193-9.267a6.932,6.932,0,0,0-2.141-4.964,6.262,6.262,0,0,0-.128-4.991S24.882.572,20.985,2.995a20.545,20.545,0,0,0-9.992,0C7.1.572,5.411,1.035,5.411,1.035a6.262,6.262,0,0,0-.128,4.991,6.929,6.929,0,0,0-2.141,5c0,7.175,4.711,8.75,9.193,9.267a4.427,4.427,0,0,0-1.063,1.575,4.163,4.163,0,0,0-.279,1.84v5.123" transform="translate(0.8 0.53)" fill="none" stroke="#fff" stroke-linecap="round" stroke-linejoin="round" stroke-width="3"/>
</svg>
