<svg xmlns="http://www.w3.org/2000/svg" width="32.931" height="32.931" viewBox="0 0 32.931 32.931">
  <g id="instagram" transform="translate(1.5 1.5)">
    <path id="Path_1" data-name="Path 1" d="M23.448,1H8.483A7.483,7.483,0,0,0,1,8.483V23.448a7.483,7.483,0,0,0,7.483,7.483H23.448a7.483,7.483,0,0,0,7.483-7.483V8.483A7.483,7.483,0,0,0,23.448,1Z" transform="translate(-1 -1)" fill="none" stroke="#fff" stroke-linecap="round" stroke-linejoin="round" stroke-width="3"/>
    <path id="Path_2" data-name="Path 2" d="M22.98,16.036a5.986,5.986,0,1,1-1.689-3.355A5.986,5.986,0,0,1,22.98,16.036Z" transform="translate(-2.028 -2.013)" fill="none" stroke="#fff" stroke-linecap="round" stroke-linejoin="round" stroke-width="3"/>
    <path id="Path_3" data-name="Path 3" d="M26.833,8.5h.016" transform="translate(-3.637 -1.766)" fill="none" stroke="#fff" stroke-linecap="round" stroke-linejoin="round" stroke-width="3"/>
  </g>
</svg>
