<svg xmlns="http://www.w3.org/2000/svg" width="27.693" height="26.458" viewBox="0 0 27.693 26.458">
  <g id="linkedin" transform="translate(1.5 1.5)">
    <path id="Path_4" data-name="Path 4" d="M21.158,11a7.408,7.408,0,0,1,7.408,7.408V27.05H23.627V18.408a2.469,2.469,0,0,0-4.939,0V27.05H13.75V18.408A7.408,7.408,0,0,1,21.158,11Z" transform="translate(-3.873 -3.592)" fill="none" stroke="#fff" stroke-linecap="round" stroke-linejoin="round" stroke-width="3"/>
    <path id="Path_5" data-name="Path 5" d="M7.689,12.375H2.75V27.191H7.689Z" transform="translate(-2.75 -3.732)" fill="none" stroke="#fff" stroke-linecap="round" stroke-linejoin="round" stroke-width="3"/>
    <path id="Path_6" data-name="Path 6" d="M5.219,7.689A2.469,2.469,0,1,0,2.75,5.219,2.469,2.469,0,0,0,5.219,7.689Z" transform="translate(-2.75 -2.75)" fill="none" stroke="#fff" stroke-linecap="round" stroke-linejoin="round" stroke-width="3"/>
  </g>
</svg>
