<svg xmlns="http://www.w3.org/2000/svg" width="31.734" height="26.511" viewBox="0 0 31.734 26.511">
  <path id="twitter" d="M29.734,1.013A14.259,14.259,0,0,1,25.633,3a5.85,5.85,0,0,0-10.266,3.9v1.3a13.967,13.967,0,0,1-6.62-1.476A13.908,13.908,0,0,1,3.612,2.314s-5.224,11.71,6.53,16.914A15.245,15.245,0,0,1,1,21.83c11.755,6.505,26.122,0,26.122-14.962a5.828,5.828,0,0,0-.1-1.08A10.034,10.034,0,0,0,29.734,1.013Z" transform="translate(0.5 0.508)" fill="none" stroke="#fff" stroke-linecap="round" stroke-linejoin="round" stroke-width="3"/>
</svg>
